w1000b400r0.ufo
<glyph name="_9" format="2">
  <advance width="1000"/>
  <unicode hex="0109"/>
  
  <outline>
    <component base="cap" xOffset="0" yOffset="0.000" />
    <component base="cap" xOffset="0" yOffset="90.000" />
    <contour>
      <point x="0.000" y="0.000" type="line"/>
      <point x="0.000" y="90.000" type="line"/>
      <point x="400.000" y="90.000" type="line"/>
      <point x="400.000" y="0.000" type="line"/>
    </contour>
  </outline>
</glyph>
<glyph name="_11" format="2">
  <advance width="1000"/>
  <unicode hex="010B"/>
  
  <outline>
    <component base="cap" xOffset="0" yOffset="0.000" />
    <component base="cap" xOffset="0" yOffset="110.000" />
    <contour>
      <point x="0.000" y="0.000" type="line"/>
      <point x="0.000" y="110.000" type="line"/>
      <point x="400.000" y="110.000" type="line"/>
      <point x="400.000" y="0.000" type="line"/>
    </contour>
  </outline>
</glyph>
<glyph name="_14" format="2">
  <advance width="1000"/>
  <unicode hex="010E"/>
  <unicode hex="2582"/><unicode hex="0068"/>
  <outline>
    <component base="cap" xOffset="0" yOffset="0.000" />
    <component base="cap" xOffset="0" yOffset="140.000" />
    <contour>
      <point x="0.000" y="0.000" type="line"/>
      <point x="0.000" y="140.000" type="line"/>
      <point x="400.000" y="140.000" type="line"/>
      <point x="400.000" y="0.000" type="line"/>
    </contour>
  </outline>
</glyph>
<glyph name="_17" format="2">
  <advance width="1000"/>
  <unicode hex="0111"/>
  
  <outline>
    <component base="cap" xOffset="0" yOffset="0.000" />
    <component base="cap" xOffset="0" yOffset="170.000" />
    <contour>
      <point x="0.000" y="0.000" type="line"/>
      <point x="0.000" y="170.000" type="line"/>
      <point x="400.000" y="170.000" type="line"/>
      <point x="400.000" y="0.000" type="line"/>
    </contour>
  </outline>
</glyph>
<glyph name="_20" format="2">
  <advance width="1000"/>
  <unicode hex="0114"/>
  <unicode hex="0032"/><unicode hex="006B"/>
  <outline>
    <component base="cap" xOffset="0" yOffset="0.000" />
    <component base="cap" xOffset="0" yOffset="200.000" />
    <contour>
      <point x="0.000" y="0.000" type="line"/>
      <point x="0.000" y="200.000" type="line"/>
      <point x="400.000" y="200.000" type="line"/>
      <point x="400.000" y="0.000" type="line"/>
    </contour>
  </outline>
</glyph>
<glyph name="_33" format="2">
  <advance width="1000"/>
  <unicode hex="0121"/>
  
  <outline>
    <component base="cap" xOffset="0" yOffset="0" />
    <component base="cap" xOffset="0" yOffset="330" />
    <contour>
      <point x="0" y="0" type="line"/>
      <point x="0" y="330" type="line"/>
      <point x="400" y="330" type="line"/>
      <point x="400" y="0" type="line"/>
    </contour>
  </outline>
</glyph>
<glyph name="_45" format="2">
  <advance width="1000"/>
  <unicode hex="012D"/>
  
  <outline>
    <component base="cap" xOffset="0" yOffset="0.000" />
    <component base="cap" xOffset="0" yOffset="450.000" />
    <contour>
      <point x="0.000" y="0.000" type="line"/>
      <point x="0.000" y="450.000" type="line"/>
      <point x="400.000" y="450.000" type="line"/>
      <point x="400.000" y="0.000" type="line"/>
    </contour>
  </outline>
</glyph>
<glyph name="_54" format="2">
  <advance width="1000"/>
  <unicode hex="0136"/>
  <unicode hex="0042"/>
  <outline>
    <component base="cap" xOffset="0" yOffset="0" />
    <component base="cap" xOffset="0" yOffset="540" />
    <contour>
      <point x="0" y="0" type="line"/>
      <point x="0" y="540" type="line"/>
      <point x="400" y="540" type="line"/>
      <point x="400" y="0" type="line"/>
    </contour>
  </outline>
</glyph>
<glyph name="_57" format="2">
  <advance width="1000"/>
  <unicode hex="0139"/>
  
  <outline>
    <component base="cap" xOffset="0" yOffset="0.000" />
    <component base="cap" xOffset="0" yOffset="570.000" />
    <contour>
      <point x="0.000" y="0.000" type="line"/>
      <point x="0.000" y="570.000" type="line"/>
      <point x="400.000" y="570.000" type="line"/>
      <point x="400.000" y="0.000" type="line"/>
    </contour>
  </outline>
</glyph>
<glyph name="_61" format="2">
  <advance width="1000"/>
  <unicode hex="013D"/>
  
  <outline>
    <component base="cap" xOffset="0" yOffset="0.000" />
    <component base="cap" xOffset="0" yOffset="610.000" />
    <contour>
      <point x="0.000" y="0.000" type="line"/>
      <point x="0.000" y="610.000" type="line"/>
      <point x="400.000" y="610.000" type="line"/>
      <point x="400.000" y="0.000" type="line"/>
    </contour>
  </outline>
</glyph>
<glyph name="_84" format="2">
  <advance width="1000"/>
  <unicode hex="0154"/>
  <unicode hex="0051"/>
  <outline>
    <component base="cap" xOffset="0" yOffset="0.000" />
    <component base="cap" xOffset="0" yOffset="840.000" />
    <contour>
      <point x="0.000" y="0.000" type="line"/>
      <point x="0.000" y="840.000" type="line"/>
      <point x="400.000" y="840.000" type="line"/>
      <point x="400.000" y="0.000" type="line"/>
    </contour>
  </outline>
</glyph>
<glyph name="_86" format="2">
  <advance width="1000"/>
  <unicode hex="0156"/>
  <unicode hex="2587"/><unicode hex="0052"/>
  <outline>
    <component base="cap" xOffset="0" yOffset="0.000" />
    <component base="cap" xOffset="0" yOffset="860.000" />
    <contour>
      <point x="0.000" y="0.000" type="line"/>
      <point x="0.000" y="860.000" type="line"/>
      <point x="400.000" y="860.000" type="line"/>
      <point x="400.000" y="0.000" type="line"/>
    </contour>
  </outline>
</glyph>
<glyph name="_2.center" format="2">
  <advance width="1000"/>
  <unicode hex="0402"/>
  
  <outline>
    <component base="cap" xOffset="0" yOffset="490" />
    <component base="cap" xOffset="0" yOffset="510" />
    <contour>
      <point x="0" y="490" type="line"/>
      <point x="0" y="510" type="line"/>
      <point x="400" y="510" type="line"/>
      <point x="400" y="490" type="line"/>
    </contour>
  </outline>
</glyph>
<glyph name="_5.center" format="2">
  <advance width="1000"/>
  <unicode hex="0405"/>
  
  <outline>
    <component base="cap" xOffset="0" yOffset="475.000" />
    <component base="cap" xOffset="0" yOffset="525.000" />
    <contour>
      <point x="0.000" y="475.000" type="line"/>
      <point x="0.000" y="525.000" type="line"/>
      <point x="400.000" y="525.000" type="line"/>
      <point x="400.000" y="475.000" type="line"/>
    </contour>
  </outline>
</glyph>
<glyph name="_6.center" format="2">
  <advance width="1000"/>
  <unicode hex="0406"/>
  
  <outline>
    <component base="cap" xOffset="0" yOffset="470.000" />
    <component base="cap" xOffset="0" yOffset="530.000" />
    <contour>
      <point x="0.000" y="470.000" type="line"/>
      <point x="0.000" y="530.000" type="line"/>
      <point x="400.000" y="530.000" type="line"/>
      <point x="400.000" y="470.000" type="line"/>
    </contour>
  </outline>
</glyph>
<glyph name="_8.center" format="2">
  <advance width="1000"/>
  <unicode hex="0408"/>
  
  <outline>
    <component base="cap" xOffset="0" yOffset="460" />
    <component base="cap" xOffset="0" yOffset="540" />
    <contour>
      <point x="0" y="460" type="line"/>
      <point x="0" y="540" type="line"/>
      <point x="400" y="540" type="line"/>
      <point x="400" y="460" type="line"/>
    </contour>
  </outline>
</glyph>
<glyph name="_13.center" format="2">
  <advance width="1000"/>
  <unicode hex="040D"/>
  
  <outline>
    <component base="cap" xOffset="0" yOffset="435.000" />
    <component base="cap" xOffset="0" yOffset="565.000" />
    <contour>
      <point x="0.000" y="435.000" type="line"/>
      <point x="0.000" y="565.000" type="line"/>
      <point x="400.000" y="565.000" type="line"/>
      <point x="400.000" y="435.000" type="line"/>
    </contour>
  </outline>
</glyph>
<glyph name="_19.center" format="2">
  <advance width="1000"/>
  <unicode hex="0413"/>
  
  <outline>
    <component base="cap" xOffset="0" yOffset="405.000" />
    <component base="cap" xOffset="0" yOffset="595.000" />
    <contour>
      <point x="0.000" y="405.000" type="line"/>
      <point x="0.000" y="595.000" type="line"/>
      <point x="400.000" y="595.000" type="line"/>
      <point x="400.000" y="405.000" type="line"/>
    </contour>
  </outline>
</glyph>
<glyph name="_20.center" format="2">
  <advance width="1000"/>
  <unicode hex="0414"/>
  
  <outline>
    <component base="cap" xOffset="0" yOffset="400.000" />
    <component base="cap" xOffset="0" yOffset="600.000" />
    <contour>
      <point x="0.000" y="400.000" type="line"/>
      <point x="0.000" y="600.000" type="line"/>
      <point x="400.000" y="600.000" type="line"/>
      <point x="400.000" y="400.000" type="line"/>
    </contour>
  </outline>
</glyph>
<glyph name="_23.center" format="2">
  <advance width="1000"/>
  <unicode hex="0417"/>
  
  <outline>
    <component base="cap" xOffset="0" yOffset="385.000" />
    <component base="cap" xOffset="0" yOffset="615.000" />
    <contour>
      <point x="0.000" y="385.000" type="line"/>
      <point x="0.000" y="615.000" type="line"/>
      <point x="400.000" y="615.000" type="line"/>
      <point x="400.000" y="385.000" type="line"/>
    </contour>
  </outline>
</glyph>
<glyph name="_24.center" format="2">
  <advance width="1000"/>
  <unicode hex="0418"/>
  
  <outline>
    <component base="cap" xOffset="0" yOffset="380" />
    <component base="cap" xOffset="0" yOffset="620" />
    <contour>
      <point x="0" y="380" type="line"/>
      <point x="0" y="620" type="line"/>
      <point x="400" y="620" type="line"/>
      <point x="400" y="380" type="line"/>
    </contour>
  </outline>
</glyph>
<glyph name="_29.center" format="2">
  <advance width="1000"/>
  <unicode hex="041D"/>
  
  <outline>
    <component base="cap" xOffset="0" yOffset="355" />
    <component base="cap" xOffset="0" yOffset="645" />
    <contour>
      <point x="0" y="355" type="line"/>
      <point x="0" y="645" type="line"/>
      <point x="400" y="645" type="line"/>
      <point x="400" y="355" type="line"/>
    </contour>
  </outline>
</glyph>
<glyph name="_42.center" format="2">
  <advance width="1000"/>
  <unicode hex="042A"/>
  
  <outline>
    <component base="cap" xOffset="0" yOffset="290.000" />
    <component base="cap" xOffset="0" yOffset="710.000" />
    <contour>
      <point x="0.000" y="290.000" type="line"/>
      <point x="0.000" y="710.000" type="line"/>
      <point x="400.000" y="710.000" type="line"/>
      <point x="400.000" y="290.000" type="line"/>
    </contour>
  </outline>
</glyph>
<glyph name="_44.center" format="2">
  <advance width="1000"/>
  <unicode hex="042C"/>
  
  <outline>
    <component base="cap" xOffset="0" yOffset="280" />
    <component base="cap" xOffset="0" yOffset="720" />
    <contour>
      <point x="0" y="280" type="line"/>
      <point x="0" y="720" type="line"/>
      <point x="400" y="720" type="line"/>
      <point x="400" y="280" type="line"/>
    </contour>
  </outline>
</glyph>
<glyph name="_48.center" format="2">
  <advance width="1000"/>
  <unicode hex="0430"/>
  
  <outline>
    <component base="cap" xOffset="0" yOffset="260" />
    <component base="cap" xOffset="0" yOffset="740" />
    <contour>
      <point x="0" y="260" type="line"/>
      <point x="0" y="740" type="line"/>
      <point x="400" y="740" type="line"/>
      <point x="400" y="260" type="line"/>
    </contour>
  </outline>
</glyph>
<glyph name="_53.center" format="2">
  <advance width="1000"/>
  <unicode hex="0435"/>
  
  <outline>
    <component base="cap" xOffset="0" yOffset="235.000" />
    <component base="cap" xOffset="0" yOffset="765.000" />
    <contour>
      <point x="0.000" y="235.000" type="line"/>
      <point x="0.000" y="765.000" type="line"/>
      <point x="400.000" y="765.000" type="line"/>
      <point x="400.000" y="235.000" type="line"/>
    </contour>
  </outline>
</glyph>
<glyph name="_56.center" format="2">
  <advance width="1000"/>
  <unicode hex="0438"/>
  
  <outline>
    <component base="cap" xOffset="0" yOffset="220.000" />
    <component base="cap" xOffset="0" yOffset="780.000" />
    <contour>
      <point x="0.000" y="220.000" type="line"/>
      <point x="0.000" y="780.000" type="line"/>
      <point x="400.000" y="780.000" type="line"/>
      <point x="400.000" y="220.000" type="line"/>
    </contour>
  </outline>
</glyph>
<glyph name="_57.center" format="2">
  <advance width="1000"/>
  <unicode hex="0439"/>
  
  <outline>
    <component base="cap" xOffset="0" yOffset="215.000" />
    <component base="cap" xOffset="0" yOffset="785.000" />
    <contour>
      <point x="0.000" y="215.000" type="line"/>
      <point x="0.000" y="785.000" type="line"/>
      <point x="400.000" y="785.000" type="line"/>
      <point x="400.000" y="215.000" type="line"/>
    </contour>
  </outline>
</glyph>
<glyph name="_59.center" format="2">
  <advance width="1000"/>
  <unicode hex="043B"/>
  
  <outline>
    <component base="cap" xOffset="0" yOffset="205.000" />
    <component base="cap" xOffset="0" yOffset="795.000" />
    <contour>
      <point x="0.000" y="205.000" type="line"/>
      <point x="0.000" y="795.000" type="line"/>
      <point x="400.000" y="795.000" type="line"/>
      <point x="400.000" y="205.000" type="line"/>
    </contour>
  </outline>
</glyph>
<glyph name="_62.center" format="2">
  <advance width="1000"/>
  <unicode hex="043E"/>
  
  <outline>
    <component base="cap" xOffset="0" yOffset="190.000" />
    <component base="cap" xOffset="0" yOffset="810.000" />
    <contour>
      <point x="0.000" y="190.000" type="line"/>
      <point x="0.000" y="810.000" type="line"/>
      <point x="400.000" y="810.000" type="line"/>
      <point x="400.000" y="190.000" type="line"/>
    </contour>
  </outline>
</glyph>
<glyph name="_68.center" format="2">
  <advance width="1000"/>
  <unicode hex="0444"/>
  
  <outline>
    <component base="cap" xOffset="0" yOffset="160.000" />
    <component base="cap" xOffset="0" yOffset="840.000" />
    <contour>
      <point x="0.000" y="160.000" type="line"/>
      <point x="0.000" y="840.000" type="line"/>
      <point x="400.000" y="840.000" type="line"/>
      <point x="400.000" y="160.000" type="line"/>
    </contour>
  </outline>
</glyph>
<glyph name="_71.center" format="2">
  <advance width="1000"/>
  <unicode hex="0447"/>
  
  <outline>
    <component base="cap" xOffset="0" yOffset="145" />
    <component base="cap" xOffset="0" yOffset="855" />
    <contour>
      <point x="0" y="145" type="line"/>
      <point x="0" y="855" type="line"/>
      <point x="400" y="855" type="line"/>
      <point x="400" y="145" type="line"/>
    </contour>
  </outline>
</glyph>
<glyph name="_77.center" format="2">
  <advance width="1000"/>
  <unicode hex="044D"/>
  
  <outline>
    <component base="cap" xOffset="0" yOffset="115.000" />
    <component base="cap" xOffset="0" yOffset="885.000" />
    <contour>
      <point x="0.000" y="115.000" type="line"/>
      <point x="0.000" y="885.000" type="line"/>
      <point x="400.000" y="885.000" type="line"/>
      <point x="400.000" y="115.000" type="line"/>
    </contour>
  </outline>
</glyph>
<glyph name="_78.center" format="2">
  <advance width="1000"/>
  <unicode hex="044E"/>
  
  <outline>
    <component base="cap" xOffset="0" yOffset="110.000" />
    <component base="cap" xOffset="0" yOffset="890.000" />
    <contour>
      <point x="0.000" y="110.000" type="line"/>
      <point x="0.000" y="890.000" type="line"/>
      <point x="400.000" y="890.000" type="line"/>
      <point x="400.000" y="110.000" type="line"/>
    </contour>
  </outline>
</glyph>
<glyph name="_83.center" format="2">
  <advance width="1000"/>
  <unicode hex="0453"/>
  
  <outline>
    <component base="cap" xOffset="0" yOffset="85.000" />
    <component base="cap" xOffset="0" yOffset="915.000" />
    <contour>
      <point x="0.000" y="85.000" type="line"/>
      <point x="0.000" y="915.000" type="line"/>
      <point x="400.000" y="915.000" type="line"/>
      <point x="400.000" y="85.000" type="line"/>
    </contour>
  </outline>
</glyph>
<glyph name="_84.center" format="2">
  <advance width="1000"/>
  <unicode hex="0454"/>
  
  <outline>
    <component base="cap" xOffset="0" yOffset="80" />
    <component base="cap" xOffset="0" yOffset="920" />
    <contour>
      <point x="0" y="80" type="line"/>
      <point x="0" y="920" type="line"/>
      <point x="400" y="920" type="line"/>
      <point x="400" y="80" type="line"/>
    </contour>
  </outline>
</glyph>
<glyph name="_86.center" format="2">
  <advance width="1000"/>
  <unicode hex="0456"/>
  
  <outline>
    <component base="cap" xOffset="0" yOffset="70.000" />
    <component base="cap" xOffset="0" yOffset="930.000" />
    <contour>
      <point x="0.000" y="70.000" type="line"/>
      <point x="0.000" y="930.000" type="line"/>
      <point x="400.000" y="930.000" type="line"/>
      <point x="400.000" y="70.000" type="line"/>
    </contour>
  </outline>
</glyph>
<glyph name="_88.center" format="2">
  <advance width="1000"/>
  <unicode hex="0458"/>
  
  <outline>
    <component base="cap" xOffset="0" yOffset="60.000" />
    <component base="cap" xOffset="0" yOffset="940.000" />
    <contour>
      <point x="0.000" y="60.000" type="line"/>
      <point x="0.000" y="940.000" type="line"/>
      <point x="400.000" y="940.000" type="line"/>
      <point x="400.000" y="60.000" type="line"/>
    </contour>
  </outline>
</glyph>
<glyph name="_92.center" format="2">
  <advance width="1000"/>
  <unicode hex="045C"/>
  
  <outline>
    <component base="cap" xOffset="0" yOffset="40.000" />
    <component base="cap" xOffset="0" yOffset="960.000" />
    <contour>
      <point x="0.000" y="40.000" type="line"/>
      <point x="0.000" y="960.000" type="line"/>
      <point x="400.000" y="960.000" type="line"/>
      <point x="400.000" y="40.000" type="line"/>
    </contour>
  </outline>
</glyph>
<glyph name="_44.clip.center" format="2">
  <advance width="1000"/>
  
  <outline>
    <contour>
        <point x="0.000" y="720.000"/>

        <point x="0.000" y="720.000"/>
        <point x="0.000" y="720.000" type="curve" smooth="yes"/>
        <point x="400.000" y="720.000" type="line"/>
        <point x="400.000" y="720.000"/>

        <point x="400.000" y="720.000"/>
        <point x="400.000" y="720.000" type="curve" smooth="yes"/>
        <point x="400.000" y="280.000" type="line"/>
        <point x="400.000" y="280.000"/>

        <point x="400.000" y="280.000"/>
        <point x="400.000" y="280.000" type="curve" smooth="yes"/>
        <point x="0.000" y="280.000" type="line"/>
        <point x="0.000" y="280.000"/>

        <point x="0.000" y="280.000"/>
        <point x="0.000" y="280.000" type="curve" smooth="yes"/>
        <point x="0.000" y="720.000" type="line"/>
    </contour>
  </outline>
</glyph>
<glyph name="_66.clip.center" format="2">
  <advance width="1000"/>
  
  <outline>
    <contour>
        <point x="0.000" y="830.000"/>

        <point x="0.000" y="830.000"/>
        <point x="0.000" y="830.000" type="curve" smooth="yes"/>
        <point x="400.000" y="830.000" type="line"/>
        <point x="400.000" y="830.000"/>

        <point x="400.000" y="830.000"/>
        <point x="400.000" y="830.000" type="curve" smooth="yes"/>
        <point x="400.000" y="170.000" type="line"/>
        <point x="400.000" y="170.000"/>

        <point x="400.000" y="170.000"/>
        <point x="400.000" y="170.000" type="curve" smooth="yes"/>
        <point x="0.000" y="170.000" type="line"/>
        <point x="0.000" y="170.000"/>

        <point x="0.000" y="170.000"/>
        <point x="0.000" y="170.000" type="curve" smooth="yes"/>
        <point x="0.000" y="830.000" type="line"/>
    </contour>
  </outline>
</glyph>
<glyph name="_8.clip.center" format="2">
  <advance width="1000"/>
  
  <outline>
    <contour>
        <point x="0.000" y="540.000"/>

        <point x="0.000" y="540.000"/>
        <point x="0.000" y="540.000" type="curve" smooth="yes"/>
        <point x="400.000" y="540.000" type="line"/>
        <point x="400.000" y="540.000"/>

        <point x="400.000" y="540.000"/>
        <point x="400.000" y="540.000" type="curve" smooth="yes"/>
        <point x="400.000" y="460.000" type="line"/>
        <point x="400.000" y="460.000"/>

        <point x="400.000" y="460.000"/>
        <point x="400.000" y="460.000" type="curve" smooth="yes"/>
        <point x="0.000" y="460.000" type="line"/>
        <point x="0.000" y="460.000"/>

        <point x="0.000" y="460.000"/>
        <point x="0.000" y="460.000" type="curve" smooth="yes"/>
        <point x="0.000" y="540.000" type="line"/>
    </contour>
  </outline>
</glyph>
